HIERARCHY
ROOT Hips
{
	OFFSET 0.000000 0.000000 0.000000 
	CHANNELS 6 Xposition Yposition Zposition Yrotation Zrotation Xrotation 
	JOINT Lumbar
	{
		OFFSET 0.000000 0.000000 0.000000 
		CHANNELS 3 Zrotation Xrotation Yrotation
		JOINT Neck
		{
			OFFSET 0.000000 0.445665 0.000000 
			CHANNELS 3 Zrotation Xrotation Yrotation
			End Site
			{
				OFFSET 0.000000 0.227535 0.000000 
			}
		}
		JOINT RightShoulder
		{
			OFFSET 0.019635 0.377685 0.194865 
			CHANNELS 3 Zrotation Xrotation Yrotation
			JOINT RightElbow
			{
				OFFSET 0.000000 -0.243375 0.000000 
				CHANNELS 2 Zrotation Yrotation
				JOINT RightWrist
				{
					OFFSET 0.000000 -0.264825 0.000000 
					CHANNELS 2 Zrotation Xrotation
					End Site
					{
						OFFSET 0.006600 -0.176220 0.000990 
					}
				}
			}
		}
		JOINT LeftShoulder
		{
			OFFSET 0.019635 0.377685 -0.194865 
			CHANNELS 3 Zrotation Xrotation Yrotation
			JOINT LeftElbow
			{
				OFFSET 0.000000 -0.243375 0.000000 
				CHANNELS 2 Zrotation Yrotation
				JOINT LeftWrist
				{
					OFFSET 0.000000 -0.264825 0.000000 
					CHANNELS 2 Zrotation Xrotation
					End Site
					{
						OFFSET 0.006600 -0.176220 -0.000990 
					}
				}
			}
		}
	}
	JOINT RightHip
	{
		OFFSET 0.052140 -0.069960 0.075570 
		CHANNELS 3 Zrotation Xrotation Yrotation
		JOINT RightKnee
		{
			OFFSET 0.000000 -0.402270 0.000000 
			CHANNELS 1 Zrotation
			JOINT RightAnkle
			{
				OFFSET 0.000000 -0.404085 0.000000 
				CHANNELS 3 Zrotation Xrotation Yrotation
				End Site
				{
					OFFSET 0.204105 -0.089430 0.008415 
				}
			}
		}
	}
	JOINT LeftHip
	{
		OFFSET 0.052140 -0.069960 -0.075570 
		CHANNELS 3 Zrotation Xrotation Yrotation
		JOINT LeftKnee
		{
			OFFSET 0.000000 -0.402270 0.000000 
			CHANNELS 1 Zrotation
			JOINT LeftAnkle
			{
				OFFSET 0.000000 -0.404085 0.000000 
				CHANNELS 3 Zrotation Xrotation Yrotation
				End Site
				{
					OFFSET 0.204105 -0.089430 -0.008415 
				}
			}
		}
	}
}
MOTION
Frames: 27
Frame Time: 0.02
-0.83703 0.00513 1.30105 1050.58984 -37.32813 -7.36391 44.25487 5.64936 -3.47526 5.29798 0.59347 -2.11994 16.9267 7.10932 2.4322 134.3012 33.2766 24.96998 -13.36964 -16.26675 3.88533 -19.55179 124.60132 -109.32444 15.35781 -3.0779 44.42386 8.18558 -22.33923 -21.46335 -6.91295 -0.45484 -2.49101 59.89425 17.48756 -3.04681 -72.98252 -8.42478 1.85302 3.22501
-0.82768 0.00565 1.309 1051.63659 -37.27492 -6.71949 43.87916 5.48026 -2.66514 5.19304 0.05018 -2.11994 16.59367 6.74342 2.64893 134.3012 33.22738 24.96692 -13.57927 -16.62195 4.43434 -19.60622 124.52656 -105.91123 14.04228 -2.54976 43.19019 8.10898 -21.97588 -20.84113 -6.81868 -0.54663 -2.52929 61.7359 16.69431 -1.17795 -70.87219 -8.32213 1.96731 3.27443
-0.8179 0.00571 1.3167 1052.666 -37.26174 -6.08778 43.58111 5.29621 -1.95055 5.02621 -0.5079 -2.11994 16.40788 6.33251 2.74961 134.3012 33.1883 24.95097 -13.73729 -17.05315 5.11761 -19.64965 124.43745 -101.92132 12.47963 -1.92896 42.06944 8.01459 -21.53947 -20.34916 -6.71425 -0.65093 -2.57253 63.25161 15.85334 0.79212 -67.63421 -8.24052 2.05845 3.31298
-0.80825 0.00592 1.32454 1053.68738 -37.23209 -5.45813 43.25142 5.12207 -1.19188 4.89082 -1.0579 -2.11994 16.16023 5.94859 2.90724 134.3012 33.12401 24.9442 -13.90627 -17.45333 5.71358 -19.69329 124.36037 -98.27962 11.05625 -1.36424 40.89749 7.93409 -21.13597 -19.80068 -6.61501 -0.74883 -2.61332 64.88748 15.0355 2.70003 -64.85803 -8.15451 2.15391 3.35379
-0.79886 0.00636 1.33227 1054.77656 -37.19748 -4.79156 42.90551 4.9332 -0.4313 4.74054 -1.61595 -2.11994 15.88487 5.53322 3.05381 134.3012 33.1432 24.92588 -14.12796 -17.84325 6.43396 -19.76086 124.26021 -94.20748 9.49281 -0.73051 39.73226 7.82576 -20.73058 -19.24384 -6.51352 -0.85004 -2.65511 66.63846 14.20896 4.69844 -62.24866 -8.04677 2.27374 3.40504
-0.78882 0.00622 1.34017 1055.71899 -37.18232 -4.20668 42.61326 4.77159 0.30043 4.60685 -2.15955 -2.11994 15.70357 5.17446 3.19345 134.3012 32.99551 24.92733 -14.22848 -18.27034 6.91973 -19.77326 124.20443 -90.93161 8.1773 -0.22439 38.57642 7.77234 -20.31329 -18.73341 -6.41439 -0.94706 -2.69583 68.07582 13.39125 6.51528 -59.05279 -7.98835 2.33869 3.43259
-0.77727 0.00463 1.34855 1056.27491 -37.20516 -3.8407 42.43678 4.69466 0.97997 4.53554 -2.66318 -2.11994 15.76021 4.97872 3.33981 134.30122 32.34425 24.98964 -13.99599 -18.78666 6.75315 -19.65301 124.27705 -89.85481 7.54571 -0.06716 37.42714 7.87611 -19.87755 -18.32947 -6.32258 -1.03143 -2.73345 68.69537 12.59748 7.91461 -54.38409 -8.07272 2.24926 3.39382
-0.76505 0.00247 1.35709 1056.68126 -37.24703 -3.55759 42.31436 4.64485 1.63214 4.48321 -3.15073 -2.11994 15.90551 4.84246 3.48233 134.30124 31.53211 25.07114 -13.6451 -19.33556 6.34012 -19.47501 124.39407 -89.62917 7.18516 -0.04665 36.28105 8.03577 -19.43367 -17.96573 -6.23384 -1.11072 -2.76957 69.01552 11.81718 9.10796 -49.19515 -8.20413 2.10705 3.33228
-0.75305 0.00053 1.36558 1057.14652 -37.28345 -3.23946 42.17553 4.57918 2.29381 4.42106 -3.64312 -2.11994 16.00107 4.68272 3.62777 134.30126 30.82004 25.14186 -13.35576 -19.86642 6.0183 -19.31088 124.4897 -89.11911 6.74533 0.01711 35.12702 8.16988 -18.99585 -17.57639 -6.14471 -1.19109 -2.80566 69.49465 11.03828 10.31964 -44.33159 -8.30625 1.99482 3.28358
-0.7414 -0.00128 1.37401 1057.64891 -37.30719 -2.91083 42.00374 4.52804 2.96562 4.36069 -4.14676 -2.11994 16.13872 4.50778 3.76587 134.30129 29.99473 25.22198 -13.03264 -20.41641 5.78441 -19.19507 124.59136 -88.17244 6.11678 0.16039 34.00404 8.30501 -18.54436 -17.22184 -6.05076 -1.27728 -2.845 69.86951 10.22402 11.84342 -39.04435 -8.44178 1.85682 3.22409
-0.72884 -0.00348 1.38258 1058.03933 -37.36212 -2.62324 41.914 4.45309 3.60981 4.30328 -4.62259 -2.11994 16.21139 4.37745 3.91792 134.3013 29.3667 25.28583 -12.75158 -20.92987 5.31297 -18.9695 124.68941 -88.32396 5.94194 0.10882 32.81614 8.45022 -18.12178 -16.80357 -5.96799 -1.34973 -2.87708 70.38985 9.48965 12.67873 -34.54108 -8.51952 1.75983 3.18165
-0.71415 -0.00659 1.39154 1058.15145 -37.4916 -2.43131 42.02428 4.30737 4.1956 4.23822 -5.02837 -2.11994 16.05283 4.37091 4.12597 134.30128 29.32727 25.31133 -12.62331 -21.36314 4.19395 -18.41651 124.78173 -91.48534 7.01662 -0.48675 31.44473 8.62013 -17.7685 -16.19408 -5.91298 -1.38752 -2.89013 71.42743 8.95158 11.55893 -32.2501 -8.4186 1.79262 3.19341
-0.69854 -0.01007 1.40063 1058.1572 -37.65294 -2.27693 42.21772 4.13641 4.75318 4.17783 -5.40606 -2.11994 15.83107 4.40436 4.34567 134.30126 29.49272 25.31721 -12.54049 -21.75283 2.85333 -17.76225 124.86601 -95.69023 8.52828 -1.26679 30.00907 8.79571 -17.44665 -15.52147 -5.86969 -1.41127 -2.89582 72.61488 8.49709 9.77153 -30.78695 -8.25923 1.8679 3.22288
-0.68323 -0.01337 1.40965 1058.21546 -37.80396 -2.10404 42.38101 3.97622 5.31649 4.12302 -5.79473 -2.11994 15.65685 4.41007 4.54978 134.30124 29.55925 25.32542 -12.43178 -22.14325 1.64758 -17.17966 124.94427 -99.29965 9.79962 -1.93706 28.60308 8.96272 -17.11981 -14.87806 -5.82252 -1.43993 -2.90439 73.70842 8.01905 8.3587 -29.00264 -8.13146 1.92151 3.24332
-0.66837 -0.01673 1.41872 1058.25087 -37.93795 -1.94159 42.51257 3.82045 5.90767 4.03653 -6.19056 -2.11994 15.40499 4.45918 4.79717 134.30122 29.63783 25.36427 -12.34008 -22.61523 0.28927 -16.48689 125.06541 -103.45322 11.25562 -2.72164 27.19064 9.15972 -16.75606 -14.22559 -5.76898 -1.47434 -2.91476 74.90277 7.4827 6.64154 -26.9661 -7.98401 1.98337 3.26715
-0.65236 -0.02004 1.42771 1058.31059 -38.11495 -1.76341 42.73103 3.64844 6.4358 4.01663 -6.56479 -2.11994 15.3004 4.42543 4.95723 134.3012 29.7507 25.33168 -12.22649 -22.90675 -0.80092 -16.00016 125.09414 -106.70644 12.42831 -3.31002 25.78212 9.29144 -16.47344 -13.58695 -5.73193 -1.49385 -2.91982 75.92351 7.08471 5.39831 -25.65959 -7.86317 2.03866 3.28836
-0.63362 -0.02326 1.43651 1058.464 -38.39968 -1.54818 43.1525 3.44389 6.78461 4.18149 -6.88828 -2.11994 15.60356 4.16332 4.87443 134.3012 29.83816 25.12702 -12.03169 -22.70743 -1.09348 -16.10887 124.87576 -107.24593 12.69878 -3.31242 24.35354 9.27091 -16.43486 -12.91741 -5.73418 -1.47275 -2.9105 76.45453 7.07304 5.66565 -26.16042 -7.82852 2.06685 3.29843
-0.61373 -0.02639 1.44522 1058.64627 -38.7264 -1.31269 43.66059 3.22268 7.07283 4.41257 -7.19068 -2.11994 16.06009 3.81455 4.70377 134.3012 29.96908 24.84538 -11.81566 -22.32787 -1.10783 -16.42842 124.56422 -106.83343 12.66793 -3.11039 22.94197 9.17892 -16.47107 -12.2834 -5.75364 -1.43779 -2.89644 76.80061 7.1936 6.42865 -27.37025 -7.82255 2.08676 3.30518
-0.59423 -0.02947 1.45396 1058.81559 -39.03681 -1.07562 44.14065 3.00484 7.39756 4.61215 -7.50157 -2.11994 16.45439 3.49802 4.5718 134.3012 30.12405 24.58786 -11.61633 -22.03344 -1.25043 -16.6506 124.28988 -106.83491 12.78505 -3.00031 21.55037 9.09984 -16.45574 -11.68338 -5.76694 -1.41095 -2.88545 77.21774 7.23664 6.93817 -28.26343 -7.8045 2.11006 3.31345
-0.57521 -0.03293 1.46276 1058.98006 -39.33953 -0.8847 44.57907 2.80352 7.68557 4.81858 -7.81627 -2.11994 16.81189 3.2117 4.4429 134.3012 30.0923 24.38312 -11.38893 -21.72617 -1.39357 -16.87571 124.03311 -106.954 12.88016 -2.89969 20.03064 9.10276 -16.51824 -10.85358 -5.77205 -1.3755 -2.87007 77.70159 7.35389 7.53592 -29.16575 -7.78116 2.13722 3.32274
-0.55497 -0.03557 1.47141 1059.16332 -39.66421 -0.59331 45.11957 2.56464 8.03332 5.02548 -8.11814 -2.11994 17.28717 2.84305 4.28985 134.3012 30.46824 24.04091 -11.21414 -21.40056 -1.46618 -17.14619 123.72256 -106.58599 12.93235 -2.72977 18.79387 8.91885 -16.43268 -10.53164 -5.80013 -1.35539 -2.86312 77.99208 7.34975 8.08573 -30.20154 -7.77547 2.15277 3.32831
-0.53154 -0.03606 1.4797 1059.38804 -40.06996 -0.02171 45.95524 2.22281 8.58343 5.22562 -8.3916 -2.11994 18.01388 2.25426 4.06307 134.30121 31.85769 23.42448 -11.19306 -21.09419 -1.41573 -17.48851 123.24426 -105.12786 13.04056 -2.40714 18.23965 8.22834 -15.95004 -11.43015 -5.86942 -1.37684 -2.87782 77.86708 6.95171 8.29844 -31.47309 -7.81957 2.14778 3.32949
-0.50695 -0.03571 1.48783 1059.63152 -40.49051 0.64835 46.88338 1.84499 9.19102 5.42262 -8.65242 -2.11994 18.85862 1.5887 3.81988 134.30121 33.66935 22.65997 -11.22562 -20.77183 -1.30314 -17.86882 122.72254 -103.20917 13.09851 -2.02403 17.98801 7.35436 -15.31147 -12.86918 -5.96385 -1.41516 -2.90173 77.53979 6.43058 8.46017 -32.84228 -7.87925 2.12989 3.32625
-0.48297 -0.03566 1.49602 1059.86958 -40.88389 1.26938 47.74666 1.48537 9.75851 5.61538 -8.91826 -2.11994 19.67631 0.96635 3.60342 134.30121 35.35917 21.90191 -11.23029 -20.43903 -1.21412 -18.23507 122.24885 -101.47357 13.10654 -1.67383 17.65971 6.56894 -14.7226 -14.17725 -6.05936 -1.44844 -2.92324 77.25604 5.9837 8.70922 -34.13664 -7.92676 2.1108 3.32131
-0.45861 -0.03592 1.50429 1060.09682 -41.36482 1.91211 48.7111 1.11545 10.38565 5.83342 -9.18739 -2.11994 20.39642 0.303 3.30429 134.30122 36.77372 21.38292 -11.24588 -20.17122 -1.1309 -18.60024 121.65411 -99.7904 13.39678 -1.28951 17.0734 5.75669 -14.21985 -15.01064 -6.10543 -1.4697 -2.93693 77.16901 5.46762 8.72317 -35.58696 -7.99661 2.11918 3.33089
-0.4348 -0.03536 1.51234 1060.34898 -41.6667 2.52907 49.48359 0.76104 10.8995 5.99841 -9.44572 -2.11994 21.33404 -0.28847 3.17239 134.30122 38.83773 20.35076 -11.25576 -19.77094 -1.0299 -18.96748 121.30031 -97.93316 13.10966 -0.96979 17.09823 4.96079 -13.50707 -16.95021 -6.25679 -1.5207 -2.96927 76.62812 5.06042 9.18465 -36.72364 -8.02337 2.06999 3.31048
-0.41265 -0.03276 1.51987 1060.68059 -41.46727 3.08165 49.72062 0.43807 11.11568 6.00663 -9.68768 -2.11994 22.94301 -0.69348 3.52552 134.30123 42.78775 17.77704 -11.20058 -18.97214 -0.84638 -19.38749 121.64093 -95.42528 11.0792 -0.79713 18.71953 4.2287 -12.18962 -21.89727 -6.72232 -1.64496 -3.04982 74.87053 5.02283 11.1028 -36.98794 -7.9266 1.84182 3.19729
